<?xml version="1.0" standalone="no"?>
<!DOCTYPE svg PUBLIC "-//W3C//DTD SVG 20010904//EN"
 "http://www.w3.org/TR/2001/REC-SVG-20010904/DTD/svg10.dtd">
<svg version="1.0" xmlns="http://www.w3.org/2000/svg"
 width="300.000000pt" height="161.000000pt" viewBox="0 0 300.000000 161.000000"
 preserveAspectRatio="xMidYMid meet">
<metadata>
Created by potrace 1.10, written by Peter Selinger 2001-2011
</metadata>
<g transform="translate(0.000000,161.000000) scale(0.050000,-0.050000)"
fill="#000000" stroke="none">
<path d="M50 3200 c7 -11 -2 -26 -19 -32 -26 -11 -31 -62 -31 -349 l0 -338 58
-59 c32 -33 63 -54 70 -47 7 6 12 3 12 -8 0 -10 52 -21 115 -24 63 -2 153 -6
200 -9 47 -2 85 1 85 8 0 6 20 9 45 6 25 -2 61 -5 81 -6 20 -1 31 -10 25 -20
-6 -10 -1 -22 12 -26 32 -11 40 -82 11 -100 -18 -11 -18 -15 -1 -16 25 0 25
-35 1 -74 -8 -13 -6 -29 6 -36 11 -7 20 -23 20 -36 0 -15 -9 -12 -21 6 -22 33
-19 -51 4 -90 18 -32 19 -214 1 -202 -9 5 -16 -21 -15 -59 0 -38 8 -69 17 -69
8 0 6 -17 -5 -39 -12 -21 -14 -43 -6 -48 18 -11 17 -118 -2 -148 -8 -12 -7
-26 2 -32 13 -8 14 -86 4 -283 -1 -22 2 -65 7 -95 5 -30 3 -55 -4 -55 -22 0
-16 -280 7 -280 11 0 8 -9 -7 -18 -18 -12 -22 -31 -12 -55 8 -20 19 -113 22
-207 6 -128 15 -176 40 -194 17 -13 27 -32 21 -42 -7 -10 11 -29 40 -42 31
-14 47 -34 40 -51 -21 -55 628 -41 672 14 19 25 56 70 82 101 28 35 45 79 43
115 -2 33 2 59 8 59 7 0 12 149 12 330 0 182 -7 330 -16 330 -9 0 -9 11 -1 25
23 35 21 314 -1 300 -11 -6 -11 0 -1 16 22 37 27 719 5 764 -11 22 -10 35 3
35 12 0 16 34 8 90 -11 82 -9 90 30 90 24 0 43 8 43 18 0 36 67 42 115 10 28
-18 44 -22 36 -10 -7 12 0 22 18 22 17 0 31 -9 31 -20 0 -11 11 -18 25 -15 14
3 23 -6 20 -20 -3 -14 9 -25 26 -25 17 0 26 -9 19 -20 -7 -11 1 -20 17 -20 17
0 47 -20 67 -45 44 -54 120 -116 99 -80 -12 20 -5 20 35 2 28 -12 46 -31 39
-41 -6 -10 3 -16 19 -12 48 10 117 -81 93 -125 -24 -46 -24 -65 -1 -50 26 16
0 -76 -26 -94 -15 -10 -15 -14 -1 -15 14 0 21 -94 22 -269 0 -148 -6 -265 -13
-261 -7 5 -13 -5 -13 -21 0 -16 7 -29 15 -29 9 0 14 -18 13 -40 -2 -22 -11
-40 -20 -40 -9 0 -2 -28 16 -62 18 -34 23 -57 13 -50 -13 8 -16 -29 -9 -101 8
-86 4 -109 -14 -97 -19 11 -20 6 -4 -24 12 -22 18 -118 15 -214 -6 -198 21
-371 61 -386 15 -6 27 -23 27 -38 0 -15 18 -39 40 -53 22 -13 40 -36 40 -50 0
-19 72 -25 298 -25 294 0 371 9 352 40 -5 9 13 31 41 49 28 18 45 41 39 50 -5
10 2 30 17 45 15 15 24 42 22 61 -3 19 3 35 13 35 10 0 18 14 18 30 0 17 -10
30 -22 30 -17 0 -17 7 -1 27 13 15 17 33 9 40 -20 20 -22 93 -3 81 9 -6 11 38
5 97 -8 73 -2 128 19 176 29 68 30 68 31 14 1 -30 12 -55 24 -55 13 0 18 -18
12 -40 -6 -22 -3 -35 6 -30 19 12 100 -93 100 -128 0 -12 10 -22 21 -22 12 0
16 -8 10 -18 -6 -10 4 -23 22 -30 18 -7 27 -18 21 -25 -7 -6 24 -44 67 -83 43
-39 79 -83 79 -97 0 -15 7 -25 15 -23 19 6 106 -42 141 -77 15 -15 38 -27 52
-27 14 0 42 -18 62 -40 20 -22 51 -38 68 -35 18 3 30 -6 27 -20 -6 -32 1225
-37 1245 -5 7 12 21 16 30 10 9 -6 24 0 32 13 9 14 6 18 -9 9 -13 -8 -23 -10
-23 -4 0 6 34 26 75 45 41 19 99 50 127 70 29 20 58 32 65 26 7 -5 10 -4 5 2
-4 6 41 57 100 113 59 55 103 108 98 116 -5 9 14 31 43 50 29 19 45 23 36 9
-10 -16 -7 -20 8 -11 15 10 23 95 23 255 l0 240 -64 64 c-35 34 -56 50 -47 33
9 -16 -3 -10 -27 15 -24 25 -57 45 -73 45 -16 0 -29 10 -29 21 0 12 -9 16 -20
9 -11 -7 -26 1 -32 19 -7 17 -19 26 -28 21 -24 -15 -82 11 -70 31 6 9 -37 14
-95 10 -155 -9 -158 -9 -146 -29 6 -10 -20 -38 -59 -62 -38 -24 -70 -49 -70
-57 0 -7 -23 -40 -52 -73 -28 -33 -44 -46 -36 -30 9 17 -20 -4 -63 -45 -73
-70 -103 -84 -164 -76 -14 1 -25 -8 -25 -20 0 -13 -14 -18 -31 -11 -18 6 -26
3 -19 -8 14 -23 -36 -27 -58 -6 -21 22 -112 23 -112 2 0 -10 -11 -11 -25 -3
-14 9 -37 18 -52 20 -14 2 -45 20 -67 40 -22 21 -44 35 -48 32 -17 -11 -54 -4
-42 8 7 7 -10 30 -38 52 -29 23 -46 52 -39 68 6 16 2 24 -9 17 -18 -11 -30 33
-21 78 2 10 -9 8 -25 -4 -21 -18 -27 -17 -27 6 0 17 7 30 17 30 9 0 7 18 -4
40 -11 22 -29 58 -40 80 -14 28 -14 40 2 40 16 0 14 10 -3 32 -22 26 -22 34 2
49 24 16 24 18 -3 19 -31 0 -32 11 -18 180 2 20 8 17 19 -10 11 -29 15 -17 14
44 -1 46 -8 74 -15 63 -7 -12 -14 20 -15 70 -1 73 5 89 28 80 21 -8 26 -2 17
21 -7 17 -19 27 -28 22 -9 -6 -12 8 -6 30 6 22 17 36 24 31 8 -5 14 11 15 35
0 24 17 80 37 124 20 44 38 89 39 100 2 11 15 17 29 14 15 -3 23 6 18 20 -4
14 13 46 38 70 25 25 46 39 46 33 0 -7 14 -1 30 13 24 20 30 20 31 -3 0 -18
10 -14 30 12 16 22 29 28 29 13 0 -17 9 -15 31 7 34 33 189 44 189 12 0 -10
17 -16 37 -12 51 10 199 -60 261 -123 29 -29 39 -45 24 -36 -20 11 -24 9 -13
-8 8 -14 26 -20 40 -15 14 5 38 -12 52 -39 15 -27 46 -54 70 -60 24 -6 53 -31
65 -56 21 -47 144 -53 144 -7 0 11 18 15 40 9 22 -6 40 -2 40 8 0 10 14 18 30
18 17 0 30 9 30 20 0 11 9 20 19 20 10 0 43 22 72 49 29 27 59 48 66 45 7 -2
51 35 98 83 l85 88 0 166 c0 183 -10 229 -52 229 -15 0 -28 15 -28 33 0 19 -6
28 -12 21 -7 -7 -24 -1 -37 12 -13 13 -57 53 -98 89 -40 35 -71 76 -68 90 3
14 -10 22 -30 19 -20 -3 -33 1 -30 10 3 9 -4 19 -15 24 -11 4 -32 24 -46 45
-15 20 -40 37 -56 37 -16 0 -34 14 -41 30 -14 36 -1367 46 -1367 10 0 -10 -22
-25 -50 -32 -27 -7 -45 -20 -39 -30 6 -9 -12 -23 -40 -30 -28 -7 -51 -20 -51
-30 0 -10 -7 -16 -15 -13 -20 6 -225 -194 -225 -220 0 -11 -19 -25 -42 -31
-23 -6 -36 -20 -30 -31 7 -11 1 -28 -14 -37 -14 -9 -38 -45 -53 -81 -14 -36
-38 -65 -52 -65 -15 0 -33 -10 -41 -23 -9 -14 -5 -18 9 -9 14 9 18 3 11 -17
-7 -17 -20 -26 -30 -20 -10 6 -19 -12 -20 -40 -5 -91 -7 -97 -41 -102 -23 -3
-29 6 -22 35 6 23 -1 48 -17 58 -15 9 -19 18 -7 18 11 0 22 18 24 40 1 22 -4
40 -13 40 -9 0 -17 112 -18 248 -2 236 -5 251 -53 303 -28 30 -51 63 -51 73 0
10 -117 16 -260 15 -197 -2 -260 -9 -260 -29 0 -14 -23 -31 -51 -38 -28 -7
-45 -22 -39 -33 7 -10 3 -19 -9 -19 -11 0 -21 10 -21 21 0 12 -8 16 -18 10
-10 -6 -23 12 -30 39 l-13 50 -1251 0 c-834 0 -1246 -7 -1238 -20z m5153 -138
c262 -83 677 -419 677 -548 0 -39 -447 -316 -463 -287 -263 468 -910 532
-1199 117 -247 -353 -252 -1091 -9 -1457 275 -414 939 -366 1195 87 l59 105
74 -46 c40 -25 138 -81 218 -124 167 -89 169 -95 75 -250 -433 -712 -1637
-744 -2086 -56 -394 606 -331 1669 128 2156 304 322 866 450 1331 303z m-2723
-5 c0 -33 -191 -262 -276 -331 -230 -188 -235 -190 -493 -184 l-233 5 1 -1194
2 -1193 -270 0 c-203 0 -271 6 -271 25 0 14 0 552 0 1195 l1 1170 -411 -6
-410 -6 0 271 0 270 1180 -4 c649 -3 1180 -11 1180 -18z m675 -1442 l5 -1455
-271 0 -271 0 3 1022 c2 562 -5 1030 -14 1039 -31 31 -255 81 -337 75 -79 -5
-80 -4 -86 68 -6 72 -5 74 129 137 167 80 392 298 477 465 l60 115 150 -5 150
-6 5 -1455z"/>
</g>
</svg>
